<svg width="169" height="55" viewBox="0 0 169 55" fill="none" xmlns="http://www.w3.org/2000/svg">
<rect y="22" width="9.59998" height="11" fill="#E32454"/>
<rect x="28.8" y="33.0001" width="9.6" height="11" transform="rotate(180 28.8 33.0001)" fill="#E32454"/>
<path d="M9.6001 22L19.2001 11V22L9.6001 33V22Z" fill="#FF95AF"/>
<path d="M19.2 33L9.59997 43.9999L9.59997 33L19.2 22L19.2 33Z" fill="#FB5881"/>
<path d="M0 22L19.2 0V11L9.59998 22H0Z" fill="#FF3366"/>
<path d="M28.7999 33L9.59995 55L9.59995 44L19.1999 33L28.7999 33Z" fill="#E32454"/>
<path d="M49.708 39.2792C48.196 39.2792 46.7306 39.0332 45.312 38.5413C43.912 38.0493 42.8013 37.3969 41.98 36.5842L43.24 33.3438C44.0426 34.071 45.0226 34.6699 46.18 35.1404C47.356 35.5896 48.532 35.8142 49.708 35.8142C51.164 35.8142 52.2466 35.5468 52.956 35.0121C53.684 34.4774 54.048 33.7715 54.048 32.8946C54.048 32.2529 53.8426 31.7289 53.432 31.3225C53.04 30.8947 52.536 30.5632 51.92 30.3279C51.304 30.0926 50.464 29.8253 49.4 29.5258C47.9066 29.1194 46.6933 28.7131 45.76 28.3067C44.8453 27.9003 44.052 27.2693 43.38 26.4138C42.7266 25.5368 42.4 24.3604 42.4 22.8846C42.4 21.644 42.6893 20.5211 43.268 19.5158C43.8653 18.4892 44.752 17.6764 45.928 17.0775C47.1226 16.4786 48.5786 16.1792 50.296 16.1792C51.4906 16.1792 52.6666 16.3503 53.824 16.6925C54.9813 17.0347 55.98 17.5267 56.82 18.1683L55.672 21.4088C54.8133 20.8313 53.9173 20.3928 52.984 20.0933C52.0506 19.7939 51.1453 19.6442 50.268 19.6442C48.8306 19.6442 47.7573 19.9222 47.048 20.4783C46.3573 21.0344 46.012 21.7724 46.012 22.6921C46.012 23.3338 46.208 23.8578 46.6 24.2642C47.0106 24.6706 47.524 24.9914 48.14 25.2267C48.756 25.4619 49.596 25.7293 50.66 26.0288C52.116 26.4138 53.3106 26.8201 54.244 27.2479C55.1773 27.6543 55.9706 28.2853 56.624 29.1408C57.296 29.9964 57.632 31.1514 57.632 32.6058C57.632 33.8464 57.3333 34.9693 56.736 35.9746C56.1573 36.9799 55.2706 37.7819 54.076 38.3808C52.8813 38.9797 51.4253 39.2792 49.708 39.2792Z" fill="white"/>
<path d="M60.9053 21.8258H64.4053V38.9583H60.9053V21.8258ZM62.6693 19.0025C62.0347 19.0025 61.5027 18.7779 61.0733 18.3288C60.644 17.8582 60.4293 17.2807 60.4293 16.5963C60.4293 15.9118 60.644 15.345 61.0733 14.8958C61.5027 14.4253 62.0347 14.19 62.6693 14.19C63.304 14.19 63.836 14.4146 64.2653 14.8638C64.6947 15.2915 64.9093 15.8369 64.9093 16.5C64.9093 17.2058 64.6947 17.8047 64.2653 18.2967C63.8547 18.7672 63.3227 19.0025 62.6693 19.0025Z" fill="white"/>
<path d="M73.6191 39.1829C72.4058 39.1829 71.2204 39.0011 70.0631 38.6375C68.9058 38.2739 67.9818 37.814 67.2911 37.2579L68.6351 34.21C69.3071 34.7233 70.1098 35.1404 71.0431 35.4613C71.9951 35.7607 72.9284 35.9104 73.8431 35.9104C75.9338 35.9104 76.9791 35.2794 76.9791 34.0175C76.9791 33.4186 76.7084 33.0015 76.1671 32.7663C75.6444 32.531 74.7951 32.3064 73.6191 32.0925C72.3871 31.8786 71.3791 31.6326 70.5951 31.3546C69.8298 31.0765 69.1578 30.5953 68.5791 29.9108C68.0191 29.205 67.7391 28.2318 67.7391 26.9913C67.7391 25.3657 68.3271 24.0717 69.5031 23.1092C70.6978 22.1253 72.3031 21.6333 74.3191 21.6333C75.3458 21.6333 76.3724 21.7724 77.3991 22.0504C78.4258 22.3071 79.2658 22.66 79.9191 23.1092L78.5751 26.1571C77.3058 25.3015 75.8778 24.8738 74.2911 24.8738C73.2644 24.8738 72.4804 25.0556 71.9391 25.4192C71.4164 25.7614 71.1551 26.2213 71.1551 26.7988C71.1551 27.4404 71.4351 27.9003 71.9951 28.1783C72.5738 28.435 73.4604 28.681 74.6551 28.9163C75.8498 29.1301 76.8298 29.3761 77.5951 29.6542C78.3604 29.9322 79.0138 30.4028 79.5551 31.0658C80.1151 31.7289 80.3951 32.67 80.3951 33.8892C80.3951 35.4933 79.7884 36.7767 78.5751 37.7392C77.3618 38.7017 75.7098 39.1829 73.6191 39.1829Z" fill="white"/>
<path d="M97.1358 21.8258L90.1358 40.3379C89.4825 42.1988 88.6891 43.5035 87.7558 44.2521C86.8225 45.0221 85.6931 45.4071 84.3678 45.4071C83.6211 45.4071 82.8838 45.2681 82.1558 44.99C81.4278 44.7119 80.8305 44.327 80.3638 43.835L81.7638 40.8833C82.0998 41.247 82.4918 41.5357 82.9398 41.7496C83.4065 41.9635 83.8731 42.0704 84.3398 42.0704C84.9558 42.0704 85.4598 41.8886 85.8518 41.525C86.2625 41.1614 86.6358 40.5518 86.9718 39.6963L87.2238 39.0225L80.6998 21.8258H84.3398L89.0438 34.4988L93.7758 21.8258H97.1358Z" fill="white"/>
<path d="M107.611 21.6333C109.067 21.6333 110.365 21.9969 111.503 22.7242C112.661 23.4514 113.566 24.4781 114.219 25.8042C114.873 27.1303 115.199 28.6596 115.199 30.3921C115.199 32.1246 114.873 33.6646 114.219 35.0121C113.566 36.3382 112.661 37.3649 111.503 38.0921C110.365 38.8193 109.067 39.1829 107.611 39.1829C105.595 39.1829 103.999 38.4129 102.823 36.8729V45.1825H99.3233V21.8258H102.655V24.0717C103.234 23.2589 103.943 22.6493 104.783 22.2429C105.642 21.8365 106.585 21.6333 107.611 21.6333ZM107.219 35.75C108.507 35.75 109.562 35.2581 110.383 34.2742C111.223 33.2903 111.643 31.9963 111.643 30.3921C111.643 28.7879 111.223 27.4939 110.383 26.51C109.562 25.5261 108.507 25.0342 107.219 25.0342C106.379 25.0342 105.623 25.2588 104.951 25.7079C104.279 26.1357 103.747 26.756 103.355 27.5688C102.963 28.3815 102.767 29.3226 102.767 30.3921C102.767 31.4615 102.963 32.4026 103.355 33.2154C103.747 34.0282 104.279 34.6592 104.951 35.1083C105.623 35.5361 106.379 35.75 107.219 35.75Z" fill="white"/>
<path d="M127.003 21.6333C128.888 21.6333 130.4 22.2643 131.539 23.5263C132.677 24.7882 133.247 26.6597 133.247 29.1408V38.9583H129.747V29.6542C129.747 28.1569 129.439 27.034 128.823 26.2854C128.207 25.5154 127.329 25.1304 126.191 25.1304C124.903 25.1304 123.885 25.5796 123.139 26.4779C122.392 27.3549 122.019 28.6275 122.019 30.2958V38.9583H118.519V15.1525H122.019V23.815C122.597 23.1092 123.307 22.5744 124.147 22.2108C125.005 21.8258 125.957 21.6333 127.003 21.6333Z" fill="white"/>
<path d="M152.163 21.8258V38.9583H148.831V36.7767C148.271 37.5467 147.571 38.1456 146.731 38.5733C145.891 38.9797 144.985 39.1829 144.015 39.1829C142.017 39.1829 140.44 38.552 139.283 37.29C138.144 36.0067 137.575 34.1138 137.575 31.6113V21.8258H141.075V31.0658C141.075 32.6058 141.373 33.7608 141.971 34.5308C142.587 35.2794 143.455 35.6538 144.575 35.6538C145.825 35.6538 146.815 35.2153 147.543 34.3383C148.289 33.44 148.663 32.1567 148.663 30.4883V21.8258H152.163Z" fill="white"/>
<path d="M161.365 39.1829C160.152 39.1829 158.966 39.0011 157.809 38.6375C156.652 38.2739 155.728 37.814 155.037 37.2579L156.381 34.21C157.053 34.7233 157.856 35.1404 158.789 35.4613C159.741 35.7607 160.674 35.9104 161.589 35.9104C163.68 35.9104 164.725 35.2794 164.725 34.0175C164.725 33.4186 164.454 33.0015 163.913 32.7663C163.39 32.531 162.541 32.3064 161.365 32.0925C160.133 31.8786 159.125 31.6326 158.341 31.3546C157.576 31.0765 156.904 30.5953 156.325 29.9108C155.765 29.205 155.485 28.2318 155.485 26.9913C155.485 25.3657 156.073 24.0717 157.249 23.1092C158.444 22.1253 160.049 21.6333 162.065 21.6333C163.092 21.6333 164.118 21.7724 165.145 22.0504C166.172 22.3071 167.012 22.66 167.665 23.1092L166.321 26.1571C165.052 25.3015 163.624 24.8738 162.037 24.8738C161.01 24.8738 160.226 25.0556 159.685 25.4192C159.162 25.7614 158.901 26.2213 158.901 26.7988C158.901 27.4404 159.181 27.9003 159.741 28.1783C160.32 28.435 161.206 28.681 162.401 28.9163C163.596 29.1301 164.576 29.3761 165.341 29.6542C166.106 29.9322 166.76 30.4028 167.301 31.0658C167.861 31.7289 168.141 32.67 168.141 33.8892C168.141 35.4933 167.534 36.7767 166.321 37.7392C165.108 38.7017 163.456 39.1829 161.365 39.1829Z" fill="white"/>
</svg>
